<svg width="354" height="274" viewBox="0 0 354 274" fill="none" xmlns="http://www.w3.org/2000/svg">
<path d="M350.976 2.89022C319.534 4.309 299.466 10.8513 276.735 32.6986C256.208 52.428 241.891 83.0014 228.522 107.861C211.971 138.639 169.974 188.242 130.067 171.672C99.0793 158.806 91.9307 117.129 124.582 101.477C137.17 95.4427 154.23 104.331 157.977 117.608C162.025 131.949 151.869 149.505 143.935 160.611C122.625 190.435 82.6865 181.024 54.5501 197.94C28.2631 213.745 20.3584 238.694 15.2671 267.512C14.831 269.981 8.70456 261.494 6.98398 259.536C0.676446 252.362 2.04146 256.807 6.81056 262.232C9.87775 265.721 14.5613 274.754 17.5256 268.635C19.6643 264.22 26.5174 257.621 30.3278 254.272" stroke="#E4C2AE" stroke-width="5" stroke-linecap="round"/>
</svg>
