<svg width="232" height="382" viewBox="0 0 232 382" fill="none" xmlns="http://www.w3.org/2000/svg">
<path d="M3.58228 2.90052C1.21643 34.2855 5.30242 54.9939 24.2631 80.1826C41.3858 102.929 70.0194 120.814 93.0942 137.07C121.663 157.196 165.866 204.843 144.626 242.473C128.133 271.692 85.8989 273.786 74.2794 239.492C69.7998 226.271 80.6717 210.401 94.3029 208.274C109.026 205.978 125.236 218.167 135.308 227.377C162.359 252.113 148.222 290.633 161.639 320.597C174.173 348.591 197.993 359.433 225.992 367.947C228.39 368.677 219.229 373.74 217.079 375.213C209.199 380.614 213.776 379.792 219.734 375.709C223.566 373.083 233.097 369.517 227.377 365.84C223.251 363.187 217.523 355.591 214.655 351.406" stroke="#E4C2AE" stroke-width="5" stroke-linecap="round"/>
</svg>
