<svg width="67" height="161" viewBox="0 0 67 161" fill="none" xmlns="http://www.w3.org/2000/svg">
<path id="Vector 69" d="M13.6712 1.99965C36.3309 19.7161 57.8843 40.4469 63.9167 69.6167C65.5888 77.7024 65.9073 91.721 58.5378 97.665C52.1334 102.831 40.5165 102.57 32.9707 101.282C25.5952 100.022 17.6458 96.4562 13.3768 90.1567C11.4398 87.2985 10.707 83.6086 14.6973 82.8155C25.2793 80.7122 34.209 94.2295 31.4213 103.551C27.2692 117.433 14.0257 128.465 12.4721 142.973C12.294 144.636 10.1491 153.414 13.4541 153.768C16.864 154.133 19.6689 148.817 22.1725 147.219C25.9998 144.776 15.3309 153.291 12.6386 156.947C10.5147 159.831 11.0776 160.347 10.007 156.012C8.90884 151.565 6.18823 144.907 1.79057 142.898" stroke="#E0BBA6" stroke-width="3.59885" stroke-linecap="round"/>
</svg>
